<svg xmlns="http://www.w3.org/2000/svg" width="17" height="16" viewBox="0 0 17 16"><title>calendar</title><path d="M17 15.25v-9.5a.25.25 0 0 0-.5 0v9.5a.25.25 0 0 1-.25.25H.75a.25.25 0 0 1-.25-.25v-9.5a.25.25 0 0 0-.5 0v9.5c0 .413.337.75.75.75h15.5c.413 0 .75-.337.75-.75zM2.25 11.5a.25.25 0 0 0 0 .5H3v1.75a.25.25 0 0 0 .5 0V12h3v1.75a.25.25 0 0 0 .5 0V12h3v1.75a.25.25 0 0 0 .5 0V12h3v1.75a.25.25 0 0 0 .5 0V12h.75a.25.25 0 0 0 0-.5H14V9h.75a.25.25 0 0 0 0-.5H14V6.25a.25.25 0 0 0-.5 0V8.5h-3V6.25a.25.25 0 0 0-.5 0V8.5H7V6.25a.25.25 0 0 0-.5 0V8.5h-3V6.25a.25.25 0 0 0-.5 0V8.5h-.75a.25.25 0 0 0 0 .5H3v2.5h-.75zM13.5 9v2.5h-3V9h3zM10 9v2.5H7V9h3zM3.5 9h3v2.5h-3V9zm10.75-7.5h2.125c.044 0 .125 0 .125.25V4H.5V1.75a.25.25 0 0 1 .25-.25h2a.25.25 0 0 0 0-.5h-2a.752.752 0 0 0-.75.75v2.5c0 .138.112.25.25.25h16.5a.25.25 0 0 0 .25-.25v-2.5c0-.553-.323-.75-.625-.75H14.25a.25.25 0 0 0 0 .5zm-3 0a.25.25 0 0 0 0-.5h-5.5a.25.25 0 0 0 0 .5h5.5zm-6.75.75v-2a.25.25 0 0 0-.5 0v2a.25.25 0 0 0 .5 0zm8.25.25a.25.25 0 0 0 .25-.25v-2a.25.25 0 0 0-.5 0v2c0 .138.112.25.25.25z"/></svg>