<svg xmlns="http://www.w3.org/2000/svg" width="12" height="16" viewBox="0 0 12 16"><title>document</title><path d="M.75 16h10.5c.413 0 .75-.337.75-.75V4.75c0-.008-.004-.016-.005-.024-.001-.011-.004-.021-.007-.032a.249.249 0 0 0-.045-.096c-.004-.005-.003-.01-.007-.014l-4-4.5-.005-.003a.246.246 0 0 0-.14-.072C7.777.006 7.763 0 7.748 0h-7a.752.752 0 0 0-.75.75v14.5c0 .413.337.75.75.75zM8 .907L11.194 4.5H8.25c-.11 0-.25-.21-.25-.375V.908zM.5.75A.25.25 0 0 1 .75.5H7.5v3.625c0 .404.327.875.75.875h3.25v10.25a.25.25 0 0 1-.25.25H.75c-.14 0-.25-.11-.25-.25V.75zM2.75 7h6.5a.25.25 0 0 0 0-.5h-6.5a.25.25 0 0 0 0 .5zm0 2h6.5a.25.25 0 0 0 0-.5h-6.5a.25.25 0 0 0 0 .5zm0-4h3a.25.25 0 0 0 0-.5h-3a.25.25 0 0 0 0 .5zm0 6h6.5a.25.25 0 0 0 0-.5h-6.5a.25.25 0 0 0 0 .5zm0 2h6.5a.25.25 0 0 0 0-.5h-6.5a.25.25 0 0 0 0 .5z"/></svg>