<svg xmlns="http://www.w3.org/2000/svg" width="17" height="16" viewBox="0 0 17 16"><title>documents</title><path d="M.756 14H9.75c.413 0 .75-.337.75-.75v-9.5c0-.011-.005-.022-.007-.033l-.007-.031a.244.244 0 0 0-.061-.114L6.926.073a.257.257 0 0 0-.145-.067C6.77.005 6.76 0 6.749 0H.752a.753.753 0 0 0-.753.75v12.5c0 .413.339.75.756.75zM7 .854l2.646 2.647H7.25a.25.25 0 0 1-.25-.25V.854zM.5.75C.5.612.614.5.753.5H6.5v2.75c0 .413.337.75.75.75H10v9.25a.25.25 0 0 1-.25.25H.756a.253.253 0 0 1-.256-.25V.75zM2.25 6h6a.25.25 0 0 0 0-.5h-6a.25.25 0 0 0 0 .5zm0 2h6a.25.25 0 0 0 0-.5h-6a.25.25 0 0 0 0 .5zm0-4h2.5a.25.25 0 0 0 0-.5h-2.5a.25.25 0 0 0 0 .5zm0 6h6a.25.25 0 0 0 0-.5h-6a.25.25 0 0 0 0 .5zm0 2h6a.25.25 0 0 0 0-.5h-6a.25.25 0 0 0 0 .5zm8.5-9.5H13v2.75c0 .413.337.75.75.75h2.75v9.25a.25.25 0 0 1-.25.25H7.256A.253.253 0 0 1 7 15.25v-.5a.25.25 0 0 0-.5 0v.5c0 .413.339.75.756.75h8.994c.413 0 .75-.337.75-.75v-9.5c0-.011-.005-.021-.006-.032s-.003-.021-.006-.031a.253.253 0 0 0-.061-.114l-3.499-3.499a.239.239 0 0 0-.114-.061l-.03-.006c-.01-.001-.021-.006-.032-.006h-2.5a.25.25 0 0 0 0 .5zm3 3a.25.25 0 0 1-.25-.25V2.853L16.146 5.5H13.75zm-2 2.5h3a.25.25 0 0 0 0-.5h-3a.25.25 0 0 0 0 .5zm0 2h3a.25.25 0 0 0 0-.5h-3a.25.25 0 0 0 0 .5zm0 2h3a.25.25 0 0 0 0-.5h-3a.25.25 0 0 0 0 .5zm0 2h3a.25.25 0 0 0 0-.5h-3a.25.25 0 0 0 0 .5z"/></svg>