<svg xmlns="http://www.w3.org/2000/svg" width="16" height="16" viewBox="0 0 16 16"><title>edit</title><path d="M.105 2.823c-.423.424-.333 1.021.004 1.358.013.013 1.367 1.306 3.271 3.21a.249.249 0 0 0 .354 0 .25.25 0 0 0 0-.354l-.819-.816.794-.795a.25.25 0 1 0-.353-.354l-.796.796c-.446-.44-.838-.824-1.157-1.135L3.21 2.925a.25.25 0 1 0-.353-.353L1.044 4.385.46 3.822c-.105-.106-.244-.402 0-.647l2.5-2.5c.096-.098.353-.292.635-.012.013.014 1.275 1.448 3.202 3.375a.25.25 0 1 0 .354-.353A79.477 79.477 0 0 1 3.96.321c-.466-.465-1.028-.326-1.353 0l-2.501 2.5zm10.605 9.25a.25.25 0 0 0-.354 0l-.796.795-.765-.771a.25.25 0 1 0-.354.354 144.378 144.378 0 0 1 3.164 3.255.923.923 0 0 0 .662.267c.262 0 .528-.102.693-.268l2.499-2.528c.315-.315.332-.848.039-1.143l-3.353-3.353a.25.25 0 1 0-.354.354l3.353 3.352c.1.1.081.316-.04.437l-2.499 2.528a.506.506 0 0 1-.338.12.424.424 0 0 1-.302-.114c-.005-.005-.214-.229-.578-.61l1.822-1.822a.25.25 0 1 0-.354-.354l-1.815 1.815c-.312-.325-.694-.719-1.13-1.163l.798-.798a.249.249 0 0 0 0-.353zM-.146 15.915a.25.25 0 0 0 .25.064l5-1.489a.254.254 0 0 0 .106-.063l8.545-8.602c.012-.012.018-.027.027-.041l1.828-1.828a.776.776 0 0 0 0-1.101L12.993.238a.797.797 0 0 0-1.101 0l-1.87 1.869c-.012.012-.018.027-.027.042l-8.558 8.559a.246.246 0 0 0-.061.1l-1.58 4.857a.25.25 0 0 0 .058.252zm10.359-13.28l.52.519-7.761 7.783-.864-.196 8.105-8.106zm-6.93 8.698l7.803-7.824 1.218 1.218L4.43 12.5H3.283v-1.167zm9.942-5.685l-8.122 8.177-.288-1.001 7.843-7.744.567.567zM1.779 11.18l1.003.228v1.342c0 .138.112.25.25.25h1.312l.317 1.1-4.244 1.264 1.361-4.185zM12.245.59a.287.287 0 0 1 .395 0l2.617 2.618a.277.277 0 0 1 0 .395l-1.685 1.686-3.011-3.011L12.246.591z"/></svg>