<svg xmlns="http://www.w3.org/2000/svg" width="17" height="16" viewBox="0 0 17 16"><title>file</title><path d="M2.793 15.934c1.008 0 2.091-.513 2.854-1.275l8.441-8.585a2.294 2.294 0 0 0 .678-1.615 2.235 2.235 0 0 0-.658-1.611c-.884-.883-2.33-.875-3.231.024L4.406 9.637a.268.268 0 0 0 .387.37l6.466-6.761c.687-.687 1.796-.696 2.47-.02.326.326.505.763.502 1.229a1.762 1.762 0 0 1-.523 1.243l-8.441 8.585c-.888.887-2.713 1.693-3.808.597-.518-.518-.778-1.155-.751-1.839.026-.68.346-1.36.904-1.917l9.648-9.792c.513-.513 1.315-.81 2.198-.813h.016c.876 0 1.667.288 2.171.793.508.507.797 1.304.793 2.187s-.3 1.684-.817 2.201l-7.447 7.742a.267.267 0 0 0 .385.37l7.444-7.739c.613-.612.966-1.55.97-2.573.005-1.023-.342-1.96-.95-2.567-.604-.604-1.532-.95-2.549-.95h-.018c-1.024.004-1.962.357-2.575.971l-9.649 9.793c-1.351 1.351-1.413 3.248-.151 4.511.474.473 1.077.677 1.712.677z"/></svg>