<svg xmlns="http://www.w3.org/2000/svg" width="16" height="16" viewBox="0 0 16 16"><title>link</title><path d="M9.493 8.236a2.302 2.302 0 0 0 1.874-.665l3.703-3.703a2.29 2.29 0 0 0 .678-1.615A2.235 2.235 0 0 0 15.09.642a2.236 2.236 0 0 0-1.594-.658h-.017a2.294 2.294 0 0 0-1.615.678L8.161 4.365a2.303 2.303 0 0 0-.635 2.079.267.267 0 0 0 .524-.104 1.766 1.766 0 0 1 .488-1.596l3.703-3.703A1.758 1.758 0 0 1 13.482.52c.488 0 .902.175 1.229.501s.505.764.502 1.229a1.761 1.761 0 0 1-.522 1.241l-3.703 3.703a1.776 1.776 0 0 1-1.44.512.268.268 0 0 0-.057.532zm-1.923 3.4a2.284 2.284 0 0 0 .614-2.167.265.265 0 0 0-.323-.197.267.267 0 0 0-.197.322 1.754 1.754 0 0 1-.473 1.664l-3.703 3.703a1.758 1.758 0 0 1-1.241.521c-.48.002-.902-.175-1.229-.502s-.505-.763-.501-1.229a1.77 1.77 0 0 1 .521-1.242l3.703-3.703a1.76 1.76 0 0 1 1.453-.511c.144.011.279-.088.296-.236s-.088-.279-.236-.296a2.296 2.296 0 0 0-1.891.663L.66 12.129a2.295 2.295 0 0 0-.678 1.616c-.005.61.23 1.182.658 1.611.425.425.99.659 1.594.659h.017a2.294 2.294 0 0 0 1.615-.678l3.704-3.703zm3.797-7.2a.268.268 0 0 0-.378 0l-6.75 6.75a.268.268 0 0 0 .189.457.264.264 0 0 0 .189-.079l6.75-6.75a.268.268 0 0 0 0-.378z"/></svg>