<svg xmlns="http://www.w3.org/2000/svg" width="16" height="16" viewBox="0 0 16 16"><title>magnifying-glass</title><path d="M5.25 0C2.355 0 0 2.355 0 5.25s2.355 5.25 5.25 5.25a5.224 5.224 0 0 0 3.535-1.38c.011.02.021.04.038.057l1.075 1.075a.988.988 0 0 0 .152 1.212l4.242 4.242c.188.188.44.292.707.292s.518-.104.707-.293.293-.44.293-.707-.104-.518-.293-.707l-4.242-4.242c-.317-.317-.829-.364-1.21-.149L9.176 8.822c-.017-.017-.037-.027-.057-.038a5.224 5.224 0 0 0 1.38-3.535 5.256 5.256 0 0 0-5.25-5.25zm5.861 10.404l4.242 4.242a.5.5 0 0 1 0 .708.514.514 0 0 1-.707 0l-4.242-4.242a.5.5 0 0 1 .354-.854c.134 0 .258.052.354.146zM5.25 10C2.631 10 .5 7.869.5 5.25S2.631.5 5.25.5 10 2.631 10 5.25 7.869 10 5.25 10zm0-8.5C3.182 1.5 1.5 3.182 1.5 5.25S3.182 9 5.25 9 9 7.318 9 5.25 7.318 1.5 5.25 1.5zm0 7C3.458 8.5 2 7.042 2 5.25S3.458 2 5.25 2 8.5 3.458 8.5 5.25 7.042 8.5 5.25 8.5z"/></svg>