<svg xmlns="http://www.w3.org/2000/svg" width="16" height="16" viewBox="0 0 16 16"><title>picture</title><path d="M.75 16h14.5c.413 0 .75-.337.75-.75V.75a.752.752 0 0 0-.75-.75H.75A.752.752 0 0 0 0 .75v14.5c0 .413.337.75.75.75zM.5.75A.25.25 0 0 1 .75.5h14.5a.25.25 0 0 1 .25.25v14.5a.25.25 0 0 1-.25.25H.75a.25.25 0 0 1-.25-.25V.75zm9.75 5.5a1.001 1.001 0 1 0-1-1c0 .551.448 1 1 1zm0-1.5a.5.5 0 1 1 0 1 .5.5 0 0 1 0-1zm-8 7.75h11.5a.25.25 0 0 0 .25-.25v-10a.25.25 0 0 0-.25-.25H2.25a.25.25 0 0 0-.25.25v10c0 .138.112.25.25.25zm.25-.5V9.181c.011-.008.023-.012.034-.023L5.092 6.6c.13-.13.356-.13.486 0l3.76 3.761a.249.249 0 0 0 .349.004l1.933-1.836a.343.343 0 0 1 .479-.007l1.401 1.526.001.001v1.952H2.5zm11-9.5v6.809l-1.04-1.133a.836.836 0 0 0-.595-.247h-.001a.831.831 0 0 0-.592.243L9.52 9.836 5.932 6.248a.863.863 0 0 0-1.193 0L2.501 8.487V2.501h11z"/></svg>