<svg xmlns="http://www.w3.org/2000/svg" width="21" height="16" viewBox="0 0 21 16"><title>print</title><path d="M20.25 5H19V3.25a.752.752 0 0 0-.75-.75h-1a.25.25 0 0 0 0 .5h1a.25.25 0 0 1 .25.25V5h-2V.25a.25.25 0 0 0-.25-.25H4.75a.25.25 0 0 0-.25.25V5h-2V3.25A.25.25 0 0 1 2.75 3h1a.25.25 0 0 0 0-.5h-1a.752.752 0 0 0-.75.75V5H.75a.752.752 0 0 0-.75.75v7c0 .413.337.75.75.75h3a.25.25 0 0 0 0-.5h-3a.25.25 0 0 1-.25-.25V11h20v1.75a.25.25 0 0 1-.25.25h-3a.25.25 0 0 0 0 .5h3c.413 0 .75-.337.75-.75v-7a.752.752 0 0 0-.75-.75zM5 .5h11V5H5V.5zm-4.5 10V5.75a.25.25 0 0 1 .25-.25h19.5a.25.25 0 0 1 .25.25v4.75H.5zm15.75 1a.25.25 0 0 0-.25.25v3.75H5v-3.75a.25.25 0 0 0-.5 0v4c0 .138.112.25.25.25h11.5a.25.25 0 0 0 .25-.25v-4a.25.25 0 0 0-.25-.25zM18.5 9a.5.5 0 1 0 1 0 .5.5 0 0 0-1 0zm-2 0a.5.5 0 1 0 1 0 .5.5 0 0 0-1 0z"/></svg>