<svg xmlns="http://www.w3.org/2000/svg" width="17" height="16" viewBox="0 0 17 16"><title>show</title><path d="M.75 16h10.5c.413 0 .75-.337.75-.75V11.5c0-.005-.002-.009-.003-.014.027-.018.056-.034.083-.053l3.993 3.993a.249.249 0 0 0 .354 0 .25.25 0 0 0 0-.354l-3.957-3.957a3.24 3.24 0 0 0 1.03-2.367 3.248 3.248 0 0 0-1.503-2.736c.001-.005.003-.009.003-.014v-1.25c0-.008-.004-.016-.005-.024-.001-.011-.004-.021-.007-.032a.249.249 0 0 0-.045-.096c-.004-.005-.003-.01-.007-.014l-4-4.5-.005-.003a.243.243 0 0 0-.14-.072c-.014-.003-.028-.009-.043-.009h-7a.752.752 0 0 0-.75.75v14.5c0 .414.337.75.75.75zM13 8.75c0 1.517-1.234 2.75-2.75 2.75S7.5 10.267 7.5 8.75 8.734 6 10.25 6 13 7.234 13 8.75zM8 .907L11.194 4.5H8.25c-.11 0-.25-.21-.25-.375V.908zM.5.75A.25.25 0 0 1 .75.5H7.5v3.625c0 .404.327.875.75.875h3.25v.75a3.24 3.24 0 0 0-3.59.75H2.75a.25.25 0 0 0 0 .5h4.766c-.282.439-.461.95-.503 1.5H2.75a.25.25 0 0 0 0 .5h4.263c.042.55.221 1.06.503 1.5H2.75a.25.25 0 0 0 0 .5h5.125c.011 0 .019-.005.03-.006a3.235 3.235 0 0 0 3.595.755v3.501a.25.25 0 0 1-.25.25H.75c-.14 0-.25-.11-.25-.25V.75zM2.75 5h3a.25.25 0 0 0 0-.5h-3a.25.25 0 0 0 0 .5zm0 8h6.5a.25.25 0 0 0 0-.5h-6.5a.25.25 0 0 0 0 .5z"/></svg>