<svg xmlns="http://www.w3.org/2000/svg" width="18" height="16" viewBox="0 0 18 16"><title>user</title><path d="M.25 15.992a.252.252 0 0 0 .306-.177c.515-1.921 2.608-2.42 3.859-2.717.314-.075.561-.133.722-.203 1.425-.619 1.889-1.614 2.029-2.34a.248.248 0 0 0-.082-.236c-.742-.64-1.368-1.602-1.763-2.708a.244.244 0 0 0-.051-.085c-.522-.568-.822-1.168-.822-1.647 0-.279.106-.467.343-.609a.252.252 0 0 0 .122-.204C5.024 2.519 6.838.514 9.063.501l.053.003c2.236.031 4.038 2.079 4.103 4.662a.247.247 0 0 0 .089.184c.156.133.229.301.229.529 0 .401-.213.893-.601 1.386a.273.273 0 0 0-.042.079c-.4 1.268-1.118 2.388-1.969 3.072a.251.251 0 0 0-.089.242c.139.726.604 1.72 2.029 2.339.168.073.43.13.761.201 1.239.268 3.311.717 3.819 2.616a.25.25 0 0 0 .306.177.25.25 0 0 0 .177-.306c-.587-2.194-2.936-2.702-4.197-2.975-.293-.063-.545-.118-.668-.172-.93-.404-1.503-1.02-1.706-1.832.864-.742 1.586-1.886 1.999-3.168.438-.57.679-1.157.679-1.659 0-.335-.108-.614-.322-.832-.119-2.802-2.119-5.008-4.6-5.044L9.038.002c-2.437.013-4.444 2.162-4.62 4.915-.313.23-.472.553-.472.962 0 .591.334 1.299.92 1.948.404 1.111 1.032 2.088 1.778 2.771-.202.816-.775 1.434-1.707 1.838-.12.053-.361.11-.638.176-1.271.302-3.635.864-4.226 3.074a.25.25 0 0 0 .177.306z"/></svg>