<?xml version="1.0" standalone="no"?>
<!DOCTYPE svg PUBLIC "-//W3C//DTD SVG 20010904//EN"
 "http://www.w3.org/TR/2001/REC-SVG-20010904/DTD/svg10.dtd">
<svg version="1.0" xmlns="http://www.w3.org/2000/svg"
 width="400.000000pt" height="400.000000pt" viewBox="0 0 400.000000 400.000000"
 preserveAspectRatio="xMidYMid meet">
<metadata>
Created by potrace 1.11, written by Peter Selinger 2001-2013
</metadata>
<g transform="translate(0.000000,400.000000) scale(0.100000,-0.100000)"
fill="#000000" stroke="none">
<path d="M1975 3773 c-141 -28 -203 -189 -113 -297 80 -97 232 -86 294 20 40
68 37 141 -8 207 -32 44 -120 80 -173 70z"/>
<path d="M123 3572 c-28 -4 -28 -3 -3 -52 32 -63 76 -106 132 -130 54 -23 61
-23 283 -5 97 8 183 16 225 20 25 2 81 7 125 11 44 3 94 7 110 9 17 1 73 6
125 10 52 4 104 8 115 9 29 3 72 -21 87 -47 7 -12 13 -51 14 -87 4 -166 107
-267 283 -276 126 -7 146 -11 192 -31 25 -11 59 -34 75 -52 l29 -31 0 150 c1
137 0 148 -13 123 -52 -101 -170 -129 -256 -62 -54 42 -71 104 -53 188 7 31
13 61 12 66 -7 77 -49 140 -112 170 -35 17 -86 18 -693 19 -360 1 -665 0 -677
-2z"/>
<path d="M2561 3569 c-63 -12 -115 -50 -141 -104 -23 -48 -23 -43 -4 -197 5
-38 2 -55 -16 -85 -71 -120 -229 -116 -292 8 -18 34 -18 33 -18 -119 l0 -154
27 33 c47 56 111 75 275 84 171 8 279 116 277 277 -2 90 28 129 97 131 27 0
175 -11 237 -18 15 -2 71 -7 125 -10 53 -4 106 -9 116 -11 11 -2 64 -6 120
-10 55 -3 110 -8 121 -10 11 -2 70 -7 130 -10 107 -6 112 -5 164 23 59 30 106
81 116 126 l7 27 -158 1 c-88 0 -213 2 -279 4 -66 1 -284 6 -485 10 -201 4
-367 8 -370 9 -3 2 -25 -1 -49 -5z"/>
<path d="M1128 3404 c-2 -1 -46 -5 -98 -9 -52 -3 -106 -8 -120 -10 -14 -2 -68
-7 -120 -10 -52 -4 -108 -8 -125 -10 -16 -3 -70 -7 -119 -11 -49 -3 -97 -8
-105 -9 -9 -2 -32 -4 -51 -4 l-34 -1 39 -40 c64 -66 120 -84 214 -69 25 4 69
10 96 13 28 4 64 9 80 11 17 3 111 16 210 30 259 36 241 31 264 71 12 20 19
40 15 45 -5 8 -138 11 -146 3z"/>
<path d="M2728 3405 c-6 -6 11 -45 37 -83 3 -4 30 -9 90 -16 28 -4 61 -8 75
-11 14 -2 45 -7 70 -10 25 -3 56 -7 70 -9 23 -4 76 -11 155 -21 17 -2 66 -10
110 -16 118 -18 169 -15 220 15 24 15 53 40 65 56 l21 30 -23 1 c-13 1 -34 2
-48 4 -14 1 -61 5 -105 9 -44 3 -106 8 -137 11 -32 3 -81 7 -110 9 -60 5 -184
16 -243 22 -114 11 -241 15 -247 9z"/>
<path d="M1834 3359 c-20 -23 -10 -57 19 -64 12 -2 87 -3 166 -2 133 2 145 4
157 23 12 17 12 23 0 39 -13 18 -28 20 -170 20 -136 1 -159 -2 -172 -16z"/>
<path d="M1270 3303 c-51 -136 10 -292 138 -354 42 -21 63 -24 201 -26 174 -2
223 -14 266 -65 33 -39 41 -31 20 18 -32 76 -86 110 -191 119 -38 3 -93 8
-123 10 -158 14 -272 133 -275 287 0 38 -4 68 -8 68 -4 0 -16 -26 -28 -57z"/>
<path d="M2700 3305 c0 -175 -126 -297 -315 -304 -195 -7 -253 -38 -286 -154
l-9 -31 42 42 c54 55 89 63 272 66 132 2 156 5 191 23 100 52 161 153 157 261
-1 56 -31 152 -46 152 -3 0 -6 -25 -6 -55z"/>
<path d="M1140 3274 c-41 -8 -97 -16 -125 -19 -138 -16 -409 -56 -414 -61 -3
-3 13 -23 37 -44 68 -61 116 -63 334 -14 62 14 122 27 133 28 11 2 29 5 40 9
11 3 32 8 46 11 23 5 26 11 28 56 1 27 0 50 -1 49 -2 -1 -37 -7 -78 -15z"/>
<path d="M2784 3242 c2 -24 8 -47 12 -51 5 -5 70 -21 144 -36 74 -15 160 -34
191 -41 115 -28 191 -14 251 48 l32 32 -35 8 c-19 3 -61 9 -93 13 -32 3 -62 7
-65 9 -3 2 -35 7 -71 11 -76 8 -100 11 -160 20 -25 4 -82 12 -128 19 l-82 12
4 -44z"/>
<path d="M1947 3253 c-3 -7 -1 -872 2 -897 1 -9 67 1 93 15 16 9 17 43 18 449
l0 440 -54 0 c-30 0 -57 -3 -59 -7z"/>
<path d="M1209 3156 c-4 -4 -221 -51 -285 -62 -16 -3 -44 -10 -62 -15 -31 -10
-32 -12 -17 -29 30 -33 114 -62 159 -56 36 5 235 61 242 69 3 3 -25 89 -30 94
-2 2 -5 1 -7 -1z"/>
<path d="M2769 3109 l-15 -48 35 -9 c20 -6 76 -22 126 -37 65 -20 100 -25 131
-20 46 6 132 62 118 75 -8 7 -79 25 -149 37 -16 3 -75 15 -130 27 l-100 22
-16 -47z"/>
<path d="M1142 2998 c-52 -16 -92 -34 -90 -40 6 -17 89 -56 128 -61 32 -4 133
25 154 43 11 10 -64 90 -84 89 -8 0 -57 -14 -108 -31z"/>
<path d="M2698 2986 l-38 -44 56 -23 c31 -12 71 -22 89 -22 42 0 117 28 139
52 15 17 11 19 -87 49 -56 18 -107 32 -112 32 -6 -1 -27 -20 -47 -44z"/>
<path d="M2594 2911 c-22 -11 -73 -17 -204 -21 -180 -6 -198 -10 -238 -53 -22
-23 -68 -127 -57 -127 3 0 1 -10 -5 -22 -6 -13 5 -4 25 19 42 49 79 69 167 89
13 3 91 7 173 8 178 3 209 9 253 44 l33 27 -59 26 c-56 25 -61 25 -88 10z"/>
<path d="M1320 2899 c-57 -26 -57 -26 -34 -45 49 -39 86 -46 255 -49 91 -2
185 -8 210 -15 64 -17 127 -56 144 -90 21 -41 25 -38 14 11 -20 89 -55 140
-114 165 -21 9 -82 14 -180 15 -98 1 -162 6 -188 15 -50 18 -53 18 -107 -7z"/>
<path d="M1503 2740 c-119 -24 -187 -82 -197 -168 -15 -119 98 -217 341 -296
l82 -27 38 24 c21 13 67 34 102 47 l63 23 -93 24 c-255 64 -396 124 -421 178
-16 36 3 72 48 91 45 19 76 12 125 -27 78 -61 249 -81 249 -28 0 5 -9 9 -21 9
-34 0 -109 22 -109 32 0 5 33 8 75 6 85 -3 95 8 53 57 -45 52 -213 80 -335 55z
m220 -39 c4 -1 7 -8 7 -16 0 -17 -36 -20 -59 -6 -20 13 -4 31 22 27 12 -3 25
-5 30 -5z"/>
<path d="M2276 2739 c-64 -15 -103 -39 -119 -72 -9 -17 -14 -33 -12 -35 2 -2
39 -4 82 -3 69 0 76 -1 59 -14 -10 -7 -42 -17 -72 -21 -30 -3 -54 -9 -54 -13
0 -54 176 -34 255 29 49 39 77 46 118 29 40 -16 56 -36 57 -71 0 -69 -122
-124 -455 -207 -88 -22 -172 -42 -187 -45 -66 -11 -202 -83 -255 -135 -118
-114 -131 -308 -28 -429 49 -56 132 -108 154 -95 56 35 113 62 161 78 30 9 59
22 65 27 12 11 16 398 4 398 -5 0 -29 -5 -54 -12 l-45 -12 0 -66 c-1 -36 -1
-127 0 -203 l1 -138 -38 16 c-216 89 -243 271 -57 380 37 22 177 68 239 79 41
8 219 57 255 70 19 8 37 14 40 14 26 3 148 59 201 93 145 93 147 260 3 326
-29 13 -63 27 -76 30 -39 10 -201 11 -242 2z m68 -38 c18 -2 -17 -31 -39 -31
-28 0 -38 10 -25 25 9 11 24 12 64 6z"/>
<path d="M2167 2190 l-99 -26 68 -34 c39 -20 80 -51 98 -73 28 -35 31 -46 31
-106 0 -58 -4 -72 -28 -104 -33 -43 -117 -94 -207 -126 -162 -56 -265 -128
-310 -217 -20 -38 -25 -62 -25 -123 0 -87 20 -134 82 -196 74 -74 71 -74 178
-19 l95 49 1 110 c1 194 3 225 9 225 15 0 88 -60 107 -87 12 -15 24 -47 27
-69 15 -89 -47 -163 -199 -239 -112 -57 -167 -104 -197 -173 -48 -109 -2 -258
95 -309 39 -20 46 -9 14 22 -61 61 -81 164 -47 237 30 65 53 82 178 137 118
52 172 88 216 146 39 51 57 99 57 160 1 82 -19 135 -75 199 l-34 38 -43 -16
c-24 -9 -80 -29 -124 -44 l-80 -28 -1 -166 c0 -92 -2 -170 -5 -172 -9 -10 -97
69 -119 106 -23 41 -28 98 -12 140 25 62 102 114 237 158 91 30 184 73 215
100 101 86 131 138 137 245 4 55 0 82 -16 126 -21 55 -78 132 -109 147 -10 5
-56 -2 -115 -18z"/>
<path d="M2050 1042 c-47 -19 -87 -37 -89 -39 -12 -9 9 -637 25 -755 6 -49 18
-62 28 -30 12 41 24 287 31 605 2 109 6 201 9 205 10 9 77 -60 92 -95 17 -40
18 -122 2 -160 -7 -15 -28 -48 -47 -72 -32 -41 -33 -43 -10 -36 114 36 173
223 106 337 -46 80 -50 81 -147 40z"/>
</g>
</svg>
