<!-- Generated by IcoMoon.io -->
<svg version="1.1" xmlns="http://www.w3.org/2000/svg" width="17" height="16" viewBox="0 0 17 16">
<title>documents</title>
<path d="M0.756 14h8.994c0.413 0 0.75-0.337 0.75-0.75v-9.5c0-0.011-0.005-0.022-0.007-0.033s-0.004-0.021-0.007-0.031c-0.011-0.043-0.030-0.083-0.061-0.114l-3.499-3.499c-0.030-0.030-0.071-0.049-0.114-0.061-0.011-0.003-0.020-0.005-0.031-0.006s-0.021-0.006-0.032-0.006h-5.997c-0.415 0-0.753 0.337-0.753 0.75v12.5c0 0.413 0.339 0.75 0.756 0.75zM7 0.854l2.646 2.647h-2.396c-0.138 0-0.25-0.112-0.25-0.25v-2.397zM0.5 0.75c0-0.138 0.114-0.25 0.253-0.25h5.747v2.75c0 0.413 0.337 0.75 0.75 0.75h2.75v9.25c0 0.138-0.113 0.25-0.25 0.25h-8.994c-0.141 0-0.256-0.112-0.256-0.25v-12.5zM2.25 6h6c0.138 0 0.25-0.112 0.25-0.25s-0.112-0.25-0.25-0.25h-6c-0.138 0-0.25 0.112-0.25 0.25s0.112 0.25 0.25 0.25zM2.25 8h6c0.138 0 0.25-0.112 0.25-0.25s-0.112-0.25-0.25-0.25h-6c-0.138 0-0.25 0.112-0.25 0.25s0.112 0.25 0.25 0.25zM2.25 4h2.5c0.138 0 0.25-0.112 0.25-0.25s-0.112-0.25-0.25-0.25h-2.5c-0.138 0-0.25 0.112-0.25 0.25s0.112 0.25 0.25 0.25zM2.25 10h6c0.138 0 0.25-0.112 0.25-0.25s-0.112-0.25-0.25-0.25h-6c-0.138 0-0.25 0.112-0.25 0.25s0.112 0.25 0.25 0.25zM2.25 12h6c0.138 0 0.25-0.112 0.25-0.25s-0.112-0.25-0.25-0.25h-6c-0.138 0-0.25 0.112-0.25 0.25s0.112 0.25 0.25 0.25zM10.75 2.5h2.25v2.75c0 0.413 0.337 0.75 0.75 0.75h2.75v9.25c0 0.138-0.113 0.25-0.25 0.25h-8.994c-0.141 0-0.256-0.112-0.256-0.25v-0.5c0-0.138-0.112-0.25-0.25-0.25s-0.25 0.112-0.25 0.25v0.5c0 0.413 0.339 0.75 0.756 0.75h8.994c0.413 0 0.75-0.337 0.75-0.75v-9.5c0-0.011-0.005-0.021-0.006-0.032s-0.003-0.021-0.006-0.031c-0.012-0.043-0.030-0.083-0.061-0.114l-3.499-3.499c-0.030-0.031-0.071-0.050-0.114-0.061-0.011-0.003-0.020-0.005-0.030-0.006s-0.021-0.006-0.032-0.006h-2.5c-0.138 0-0.25 0.112-0.25 0.25s0.112 0.25 0.25 0.25zM13.75 5.5c-0.137 0-0.25-0.112-0.25-0.25v-2.397l2.646 2.647h-2.396zM11.75 8h3c0.138 0 0.25-0.112 0.25-0.25s-0.112-0.25-0.25-0.25h-3c-0.138 0-0.25 0.112-0.25 0.25s0.112 0.25 0.25 0.25zM11.75 10h3c0.138 0 0.25-0.112 0.25-0.25s-0.112-0.25-0.25-0.25h-3c-0.138 0-0.25 0.112-0.25 0.25s0.112 0.25 0.25 0.25zM11.75 12h3c0.138 0 0.25-0.112 0.25-0.25s-0.112-0.25-0.25-0.25h-3c-0.138 0-0.25 0.112-0.25 0.25s0.112 0.25 0.25 0.25zM11.75 14h3c0.138 0 0.25-0.112 0.25-0.25s-0.112-0.25-0.25-0.25h-3c-0.138 0-0.25 0.112-0.25 0.25s0.112 0.25 0.25 0.25z"></path>
</svg>
