<!-- Generated by IcoMoon.io -->
<svg version="1.1" xmlns="http://www.w3.org/2000/svg" width="16" height="16" viewBox="0 0 16 16">
<title>edit</title>
<path d="M0.105 2.823c-0.423 0.424-0.333 1.021 0.004 1.358 0.013 0.013 1.367 1.306 3.271 3.21 0.049 0.049 0.113 0.073 0.177 0.073s0.128-0.024 0.177-0.073c0.098-0.098 0.098-0.256 0-0.354-0.287-0.287-0.56-0.559-0.819-0.816l0.794-0.795c0.098-0.098 0.098-0.256 0-0.354s-0.256-0.098-0.353 0l-0.796 0.796c-0.446-0.44-0.838-0.824-1.157-1.135l1.807-1.808c0.098-0.098 0.098-0.256 0-0.353s-0.256-0.098-0.353 0l-1.813 1.813c-0.368-0.356-0.58-0.559-0.584-0.563-0.105-0.106-0.244-0.402 0-0.647l2.5-2.5c0.096-0.098 0.353-0.292 0.635-0.012 0.013 0.014 1.275 1.448 3.202 3.375 0.098 0.098 0.256 0.098 0.354 0s0.098-0.256 0-0.353c-1.915-1.915-3.168-3.337-3.191-3.364-0.466-0.465-1.028-0.326-1.353 0l-2.501 2.5zM10.71 12.073c-0.098-0.098-0.256-0.098-0.354 0l-0.796 0.795c-0.242-0.245-0.497-0.502-0.765-0.771-0.098-0.098-0.256-0.098-0.354 0s-0.098 0.256 0 0.354c1.852 1.851 3.146 3.235 3.164 3.255 0.171 0.172 0.406 0.267 0.662 0.267v0c0.262 0 0.528-0.102 0.693-0.268l2.499-2.528c0.315-0.315 0.332-0.848 0.039-1.143l-3.353-3.353c-0.098-0.098-0.256-0.098-0.354 0s-0.098 0.256 0 0.354l3.353 3.352c0.1 0.1 0.081 0.316-0.040 0.437l-2.499 2.528c-0.057 0.058-0.188 0.12-0.338 0.12 0 0 0 0 0 0-0.086 0-0.209-0.021-0.302-0.114-0.005-0.005-0.214-0.229-0.578-0.61l1.822-1.822c0.098-0.098 0.098-0.256 0-0.354s-0.256-0.098-0.354 0l-1.815 1.815c-0.312-0.325-0.694-0.719-1.13-1.163l0.798-0.798c0.098-0.097 0.098-0.255 0-0.353zM-0.146 15.915c0.048 0.049 0.113 0.075 0.179 0.075 0.024 0 0.048-0.004 0.071-0.011l5-1.489c0.040-0.012 0.077-0.034 0.106-0.063l8.545-8.602c0.012-0.012 0.018-0.027 0.027-0.041l1.828-1.828c0.147-0.147 0.229-0.343 0.229-0.551s-0.082-0.404-0.229-0.55l-2.617-2.617c-0.294-0.294-0.807-0.294-1.101 0l-1.87 1.869c-0.012 0.012-0.018 0.027-0.027 0.042l-8.558 8.559c-0.028 0.028-0.049 0.062-0.061 0.1l-1.58 4.857c-0.029 0.088-0.007 0.185 0.058 0.252zM10.213 2.635l0.52 0.519-7.761 7.783-0.864-0.196 8.105-8.106zM3.283 11.333l7.803-7.824 1.218 1.218-7.874 7.773h-1.147v-1.167zM13.225 5.648l-8.122 8.177-0.288-1.001 7.843-7.744 0.567 0.567zM1.779 11.18l1.003 0.228v1.342c0 0.138 0.112 0.25 0.25 0.25h1.312l0.317 1.1-4.244 1.264 1.361-4.185zM12.245 0.59c0.105-0.105 0.289-0.105 0.395 0l2.617 2.618c0.053 0.053 0.082 0.123 0.082 0.197s-0.029 0.144-0.082 0.198l-1.685 1.686-3.011-3.011 1.685-1.687z"></path>
</svg>
