<!-- Generated by IcoMoon.io -->
<svg version="1.1" xmlns="http://www.w3.org/2000/svg" width="17" height="16" viewBox="0 0 17 16">
<title>file</title>
<path d="M2.793 15.934c1.008 0 2.091-0.513 2.854-1.275l8.441-8.585c0.433-0.433 0.674-1.007 0.678-1.615 0.005-0.61-0.229-1.182-0.658-1.611-0.884-0.883-2.33-0.875-3.231 0.024l-6.471 6.765c-0.101 0.107-0.098 0.276 0.009 0.378s0.275 0.098 0.378-0.008l6.466-6.761c0.687-0.687 1.796-0.696 2.47-0.020 0.326 0.326 0.505 0.763 0.502 1.229-0.003 0.468-0.188 0.908-0.523 1.243l-8.441 8.585c-0.888 0.887-2.713 1.693-3.808 0.597-0.518-0.518-0.778-1.155-0.751-1.839 0.026-0.68 0.346-1.36 0.904-1.917l9.648-9.792c0.513-0.513 1.315-0.81 2.198-0.813 0.005 0 0.011 0 0.016 0 0.876 0 1.667 0.288 2.171 0.793 0.508 0.507 0.797 1.304 0.793 2.187s-0.3 1.684-0.817 2.201l-7.447 7.742c-0.102 0.107-0.099 0.275 0.008 0.378s0.275 0.099 0.377-0.008l7.444-7.739c0.613-0.612 0.966-1.55 0.97-2.573 0.005-1.023-0.342-1.96-0.95-2.567-0.604-0.604-1.532-0.95-2.549-0.95-0.006 0-0.012 0-0.018 0-1.024 0.004-1.962 0.357-2.575 0.971l-9.649 9.793c-1.351 1.351-1.413 3.248-0.151 4.511 0.474 0.473 1.077 0.677 1.712 0.677z"></path>
</svg>
