<!-- Generated by IcoMoon.io -->
<svg version="1.1" xmlns="http://www.w3.org/2000/svg" width="16" height="16" viewBox="0 0 16 16">
<title>link</title>
<path d="M9.493 8.236c0.082 0.009 0.164 0.013 0.245 0.013 0.608 0 1.191-0.241 1.629-0.678l3.703-3.703c0.433-0.433 0.675-1.007 0.678-1.615 0.005-0.61-0.229-1.182-0.658-1.611-0.425-0.425-0.99-0.658-1.594-0.658-0.005 0-0.011 0-0.017 0-0.608 0.004-1.182 0.245-1.615 0.678l-3.703 3.703c-0.548 0.548-0.784 1.324-0.635 2.079 0.029 0.145 0.173 0.239 0.314 0.21 0.145-0.029 0.239-0.17 0.21-0.314-0.115-0.579 0.067-1.176 0.488-1.596l3.703-3.703c0.333-0.334 0.774-0.518 1.241-0.521 0.488 0 0.902 0.175 1.229 0.501s0.505 0.764 0.502 1.229c-0.004 0.468-0.188 0.908-0.522 1.241l-3.703 3.703c-0.382 0.381-0.906 0.566-1.44 0.512-0.143-0.016-0.278 0.090-0.294 0.237s0.091 0.279 0.237 0.295zM7.57 11.636c0.574-0.574 0.804-1.385 0.614-2.167-0.034-0.143-0.175-0.233-0.323-0.197-0.144 0.034-0.231 0.179-0.197 0.322 0.146 0.601-0.032 1.222-0.473 1.664l-3.703 3.703c-0.333 0.334-0.774 0.518-1.241 0.521-0.48 0.002-0.902-0.175-1.229-0.502s-0.505-0.763-0.501-1.229c0.003-0.467 0.189-0.908 0.521-1.242l3.703-3.703c0.386-0.386 0.911-0.572 1.453-0.511 0.144 0.011 0.279-0.088 0.296-0.236s-0.088-0.279-0.236-0.296c-0.702-0.079-1.39 0.162-1.891 0.663l-3.703 3.703c-0.433 0.433-0.674 1.007-0.678 1.616-0.005 0.61 0.23 1.182 0.658 1.611 0.425 0.425 0.99 0.659 1.594 0.659 0.006 0 0.010 0 0.017 0 0.608-0.004 1.182-0.245 1.615-0.678l3.704-3.703zM11.367 4.436c-0.104-0.104-0.274-0.104-0.378 0l-6.75 6.75c-0.104 0.104-0.104 0.274 0 0.378 0.052 0.052 0.12 0.079 0.189 0.079s0.136-0.026 0.189-0.079l6.75-6.75c0.104-0.104 0.104-0.274 0-0.378z"></path>
</svg>
