<!-- Generated by IcoMoon.io -->
<svg version="1.1" xmlns="http://www.w3.org/2000/svg" width="16" height="16" viewBox="0 0 16 16">
<title>magnifying-glass</title>
<path d="M5.25 0c-2.895 0-5.25 2.355-5.25 5.25s2.355 5.25 5.25 5.25c1.362 0 2.601-0.526 3.535-1.38 0.011 0.020 0.021 0.040 0.038 0.057l1.075 1.075c-0.090 0.152-0.141 0.324-0.141 0.505 0 0.267 0.104 0.518 0.293 0.707l4.242 4.242c0.188 0.188 0.44 0.292 0.707 0.292s0.518-0.104 0.707-0.293 0.293-0.44 0.293-0.707-0.104-0.518-0.293-0.707l-4.242-4.242c-0.317-0.317-0.829-0.364-1.21-0.149l-1.078-1.078c-0.017-0.017-0.037-0.027-0.057-0.038 0.854-0.934 1.38-2.173 1.38-3.535 0-2.895-2.355-5.25-5.25-5.25zM11.111 10.404l4.242 4.242c0.095 0.095 0.146 0.22 0.146 0.354s-0.052 0.259-0.146 0.354c-0.19 0.188-0.518 0.188-0.707 0l-4.242-4.242c-0.094-0.095-0.146-0.22-0.146-0.354s0.052-0.259 0.146-0.354c0.095-0.094 0.22-0.146 0.354-0.146s0.258 0.052 0.354 0.146zM5.25 10c-2.619 0-4.75-2.131-4.75-4.75s2.131-4.75 4.75-4.75 4.75 2.131 4.75 4.75-2.131 4.75-4.75 4.75zM5.25 1.5c-2.068 0-3.75 1.682-3.75 3.75s1.682 3.75 3.75 3.75 3.75-1.682 3.75-3.75-1.682-3.75-3.75-3.75zM5.25 8.5c-1.792 0-3.25-1.458-3.25-3.25s1.458-3.25 3.25-3.25 3.25 1.458 3.25 3.25-1.458 3.25-3.25 3.25z"></path>
</svg>
