<!-- Generated by IcoMoon.io -->
<svg version="1.1" xmlns="http://www.w3.org/2000/svg" width="16" height="16" viewBox="0 0 16 16">
<title>picture</title>
<path d="M0.75 16h14.5c0.413 0 0.75-0.337 0.75-0.75v-14.5c0-0.413-0.337-0.75-0.75-0.75h-14.5c-0.413 0-0.75 0.337-0.75 0.75v14.5c0 0.413 0.337 0.75 0.75 0.75zM0.5 0.75c0-0.138 0.113-0.25 0.25-0.25h14.5c0.137 0 0.25 0.112 0.25 0.25v14.5c0 0.138-0.113 0.25-0.25 0.25h-14.5c-0.137 0-0.25-0.112-0.25-0.25v-14.5zM10.25 6.25c0.552 0 1-0.449 1-1s-0.448-1-1-1-1 0.449-1 1 0.448 1 1 1zM10.25 4.75c0.276 0 0.5 0.224 0.5 0.5s-0.224 0.5-0.5 0.5-0.5-0.224-0.5-0.5 0.224-0.5 0.5-0.5zM2.25 12.5h11.5c0.138 0 0.25-0.112 0.25-0.25v-10c0-0.138-0.112-0.25-0.25-0.25h-11.5c-0.138 0-0.25 0.112-0.25 0.25v10c0 0.138 0.112 0.25 0.25 0.25zM2.5 12v-2.819c0.011-0.008 0.023-0.012 0.034-0.023l2.558-2.558c0.13-0.13 0.356-0.13 0.486 0l3.76 3.761c0.049 0.049 0.113 0.073 0.177 0.073 0.062 0 0.124-0.023 0.172-0.069l1.933-1.836c0.065-0.065 0.152-0.101 0.243-0.101s0.178 0.036 0.236 0.094l1.401 1.526c0 0 0.001 0 0.001 0.001v1.952h-11.001zM13.5 2.5v6.809l-1.040-1.133c-0.159-0.159-0.37-0.247-0.595-0.247-0.001 0-0.001 0-0.001 0-0.226 0-0.438 0.088-0.592 0.243l-1.752 1.664-3.588-3.588c-0.319-0.319-0.875-0.319-1.193 0l-2.238 2.239v-5.986h11z"></path>
</svg>
