<!-- Generated by IcoMoon.io -->
<svg version="1.1" xmlns="http://www.w3.org/2000/svg" width="21" height="16" viewBox="0 0 21 16">
<title>print</title>
<path d="M20.25 5h-1.25v-1.75c0-0.413-0.337-0.75-0.75-0.75h-1c-0.138 0-0.25 0.112-0.25 0.25s0.112 0.25 0.25 0.25h1c0.137 0 0.25 0.112 0.25 0.25v1.75h-2v-4.75c0-0.138-0.112-0.25-0.25-0.25h-11.5c-0.138 0-0.25 0.112-0.25 0.25v4.75h-2v-1.75c0-0.138 0.112-0.25 0.25-0.25h1c0.138 0 0.25-0.112 0.25-0.25s-0.112-0.25-0.25-0.25h-1c-0.413 0-0.75 0.337-0.75 0.75v1.75h-1.25c-0.413 0-0.75 0.337-0.75 0.75v7c0 0.413 0.337 0.75 0.75 0.75h3c0.138 0 0.25-0.112 0.25-0.25s-0.112-0.25-0.25-0.25h-3c-0.137 0-0.25-0.112-0.25-0.25v-1.75h20v1.75c0 0.138-0.113 0.25-0.25 0.25h-3c-0.138 0-0.25 0.112-0.25 0.25s0.112 0.25 0.25 0.25h3c0.413 0 0.75-0.337 0.75-0.75v-7c0-0.413-0.337-0.75-0.75-0.75zM5 0.5h11v4.5h-11v-4.5zM0.5 10.5v-4.75c0-0.138 0.113-0.25 0.25-0.25h19.5c0.137 0 0.25 0.112 0.25 0.25v4.75h-20zM16.25 11.5c-0.138 0-0.25 0.112-0.25 0.25v3.75h-11v-3.75c0-0.138-0.112-0.25-0.25-0.25s-0.25 0.112-0.25 0.25v4c0 0.138 0.112 0.25 0.25 0.25h11.5c0.138 0 0.25-0.112 0.25-0.25v-4c0-0.138-0.112-0.25-0.25-0.25zM18.5 9c0 0.276 0.224 0.5 0.5 0.5s0.5-0.224 0.5-0.5c0-0.276-0.224-0.5-0.5-0.5s-0.5 0.224-0.5 0.5zM16.5 9c0 0.276 0.224 0.5 0.5 0.5s0.5-0.224 0.5-0.5c0-0.276-0.224-0.5-0.5-0.5s-0.5 0.224-0.5 0.5z"></path>
</svg>
