<!-- Generated by IcoMoon.io -->
<svg version="1.1" xmlns="http://www.w3.org/2000/svg" width="17" height="16" viewBox="0 0 17 16">
<title>show</title>
<path d="M0.75 16h10.5c0.413 0 0.75-0.337 0.75-0.75v-3.75c0-0.005-0.002-0.009-0.003-0.014 0.027-0.018 0.056-0.034 0.083-0.053l3.993 3.993c0.049 0.049 0.113 0.073 0.177 0.073s0.128-0.024 0.177-0.073c0.098-0.098 0.098-0.256 0-0.354l-3.957-3.957c0.632-0.594 1.030-1.434 1.030-2.367 0-1.149-0.601-2.158-1.503-2.736 0.001-0.005 0.003-0.009 0.003-0.014v-1.25c0-0.008-0.004-0.016-0.005-0.024-0.001-0.011-0.004-0.021-0.007-0.032-0.008-0.035-0.023-0.067-0.045-0.096-0.004-0.005-0.003-0.010-0.007-0.014l-4-4.5c-0.002-0.002-0.003-0.002-0.005-0.003-0.030-0.033-0.069-0.054-0.112-0.067-0.010-0.003-0.018-0.004-0.028-0.005-0.014-0.003-0.028-0.009-0.043-0.009h-7c-0.413 0-0.75 0.337-0.75 0.75v14.5c0 0.414 0.337 0.75 0.75 0.75zM13 8.75c0 1.517-1.234 2.75-2.75 2.75s-2.75-1.233-2.75-2.75 1.234-2.75 2.75-2.75 2.75 1.234 2.75 2.75zM8 0.907l3.194 3.593h-2.944c-0.11 0-0.25-0.21-0.25-0.375v-3.217zM0.5 0.75c0-0.138 0.113-0.25 0.25-0.25h6.75v3.625c0 0.404 0.327 0.875 0.75 0.875h3.25v0.75c-0.385-0.161-0.807-0.25-1.25-0.25-0.919 0-1.748 0.385-2.34 1h-5.16c-0.138 0-0.25 0.112-0.25 0.25s0.112 0.25 0.25 0.25h4.766c-0.282 0.439-0.461 0.95-0.503 1.5h-4.263c-0.138 0-0.25 0.112-0.25 0.25s0.112 0.25 0.25 0.25h4.263c0.042 0.55 0.221 1.060 0.503 1.5h-4.766c-0.138 0-0.25 0.112-0.25 0.25s0.112 0.25 0.25 0.25h5.125c0.011 0 0.019-0.005 0.030-0.006 0.592 0.619 1.423 1.006 2.345 1.006 0.443 0 0.865-0.089 1.25-0.251v3.501c0 0.138-0.113 0.25-0.25 0.25h-10.5c-0.14 0-0.25-0.11-0.25-0.25v-14.5zM2.75 5h3c0.138 0 0.25-0.112 0.25-0.25s-0.112-0.25-0.25-0.25h-3c-0.138 0-0.25 0.112-0.25 0.25s0.112 0.25 0.25 0.25zM2.75 13h6.5c0.138 0 0.25-0.112 0.25-0.25s-0.112-0.25-0.25-0.25h-6.5c-0.138 0-0.25 0.112-0.25 0.25s0.112 0.25 0.25 0.25z"></path>
</svg>
